<?xml version="1.0" encoding="UTF-8" standalone="no"?>
<svg width="626.82269mm" height="210.66472mm" viewBox="0 0 626.82269 210.66472" version="1.1" id="svg5" inkscape:version="1.1.1 (3bf5ae0d25, 2021-09-20)" sodipodi:docname="mirror dimension keyboard.svg" inkscape:export-filename="C:\Users\Mitch\Documents\keyboard.png" inkscape:export-xdpi="513.66998" inkscape:export-ydpi="513.66998"
   xmlns:inkscape="http://www.inkscape.org/namespaces/inkscape"
   xmlns:sodipodi="http://sodipodi.sourceforge.net/DTD/sodipodi-0.dtd"
   xmlns:xlink="http://www.w3.org/1999/xlink"
   xmlns="http://www.w3.org/2000/svg"
   xmlns:svg="http://www.w3.org/2000/svg">
   <sodipodi:namedview id="namedview7" pagecolor="#ffffff" bordercolor="#111111" borderopacity="1" inkscape:pageshadow="0" inkscape:pageopacity="0" inkscape:pagecheckerboard="1" inkscape:document-units="mm" showgrid="false" inkscape:zoom="0.59850162" inkscape:cx="1165.4104" inkscape:cy="573.93329" inkscape:window-width="1920" inkscape:window-height="1001" inkscape:window-x="-9" inkscape:window-y="-9" inkscape:window-maximized="1" inkscape:current-layer="layer1" fit-margin-top="0" fit-margin-left="0" fit-margin-right="0" fit-margin-bottom="0" inkscape:snap-global="false" />
   <defs id="defs2" />
   <g inkscape:label="Layer 1" inkscape:groupmode="layer" id="layer1" transform="translate(106.62933,-43.393573)">
      <g id="g2193" transform="translate(-43.309663)">
         <use x="0" y="0" inkscape:tiled-clone-of="#rect950" xlink:href="#rect950" transform="translate(98.484554,129.62499)" id="z" width="100%" height="100%" />
         <use x="0" y="0" inkscape:tiled-clone-of="#rect950" xlink:href="#rect950" transform="translate(141.69289,129.62499)" id="x" width="100%" height="100%" />
         <use x="0" y="0" inkscape:tiled-clone-of="#rect950" xlink:href="#rect950" transform="translate(184.90122,129.62499)" id="c" width="100%" height="100%" />
         <use x="0" y="0" inkscape:tiled-clone-of="#rect950" xlink:href="#rect950" transform="translate(228.10955,129.62499)" id="v" width="100%" height="100%" />
         <use x="0" y="0" inkscape:tiled-clone-of="#rect950" xlink:href="#rect950" transform="translate(271.31788,129.62499)" id="b" width="100%" height="100%" />
         <use x="0" y="0" inkscape:tiled-clone-of="#rect950" xlink:href="#rect950" transform="translate(314.52621,129.62499)" id="n" width="100%" height="100%" />
         <use x="0" y="0" inkscape:tiled-clone-of="#rect950" xlink:href="#rect950" transform="translate(357.73454,129.62499)" id="m" width="100%" height="100%" />
         <use x="0" y="0" inkscape:tiled-clone-of="#rect950" xlink:href="#rect950" transform="translate(400.94288,129.62499)" id="comma" width="100%" height="100%" />
         <use x="0" y="0" inkscape:tiled-clone-of="#rect950" xlink:href="#rect950" transform="translate(444.15121,129.62499)" id="period" width="100%" height="100%" />
         <use x="0" y="0" inkscape:tiled-clone-of="#rect950" xlink:href="#rect950" transform="translate(487.35954,129.62499)" id="use1905" width="100%" height="100%" />
         <path id="use3939" style="fill:#ffffff;stroke:#000000;stroke-width:0.264583;stroke-linecap:round;stroke-linejoin:round" d="m -54.532761,173.15085 h 76.525136 c 4.432,0 7.99999,3.568 7.99999,8 v 21.30789 c 0,4.432 -3.56799,7.99999 -7.99999,7.99999 h -76.525136 c -4.432,0 -8,-3.56799 -8,-7.99999 v -21.30789 c 0,-4.432 3.568,-8 8,-8 z" inkscape:tile-x0="-61.580567" inkscape:tile-y0="43.393572" sodipodi:nodetypes="sssssssss" />
         <path id="path4061" style="fill:#ffffff;stroke:#000000;stroke-width:0.264583;stroke-linecap:round;stroke-linejoin:round" d="m 478.8456,173.15085 h 76.52514 c 4.432,0 7.99999,3.568 7.99999,8 v 21.30789 c 0,4.432 -3.56799,7.99999 -7.99999,7.99999 H 478.8456 c -4.432,0 -8,-3.56799 -8,-7.99999 v -21.30789 c 0,-4.432 3.568,-8 8,-8 z" inkscape:tile-x0="-61.580567" inkscape:tile-y0="43.393572" sodipodi:nodetypes="sssssssss" />
      </g>
      <g id="g2206" transform="translate(33.61521)">
         <use x="0" y="0" inkscape:tiled-clone-of="#rect950" xlink:href="#rect950" transform="translate(0,86.416663)" id="a" width="100%" height="100%" />
         <use x="0" y="0" inkscape:tiled-clone-of="#rect950" xlink:href="#rect950" transform="translate(43.208332,86.416663)" id="s" width="100%" height="100%" />
         <use x="0" y="0" inkscape:tiled-clone-of="#rect950" xlink:href="#rect950" transform="translate(86.416665,86.416663)" id="d" width="100%" height="100%" />
         <use x="0" y="0" inkscape:tiled-clone-of="#rect950" xlink:href="#rect950" transform="translate(129.625,86.416663)" id="f" width="100%" height="100%" />
         <use x="0" y="0" inkscape:tiled-clone-of="#rect950" xlink:href="#rect950" transform="translate(172.83333,86.416663)" id="g" width="100%" height="100%" />
         <use x="0" y="0" inkscape:tiled-clone-of="#rect950" xlink:href="#rect950" transform="translate(216.04166,86.416663)" id="h" width="100%" height="100%" />
         <use x="0" y="0" inkscape:tiled-clone-of="#rect950" xlink:href="#rect950" transform="translate(259.24999,86.416663)" id="j" width="100%" height="100%" />
         <use x="0" y="0" inkscape:tiled-clone-of="#rect950" xlink:href="#rect950" transform="translate(302.45833,86.416663)" id="k" width="100%" height="100%" />
         <use x="0" y="0" inkscape:tiled-clone-of="#rect950" xlink:href="#rect950" transform="translate(345.66666,86.416663)" id="l" width="100%" height="100%" />
         <use x="0" y="0" inkscape:tiled-clone-of="#rect950" xlink:href="#rect950" transform="translate(388.87499,86.416663)" id="semicolon" width="100%" height="100%" />
         <use x="0" y="0" inkscape:tiled-clone-of="#rect950" xlink:href="#rect950" transform="translate(432.08332,86.416663)" id="use1911" width="100%" height="100%" />
         <path id="use3495" style="fill:#ffffff;stroke:#000000;stroke-width:0.264583;stroke-linecap:round;stroke-linejoin:round" d="m -119.93666,129.94253 h 43.082543 c 4.431997,0 7.999995,3.56799 7.999995,7.99999 v 21.30789 c 0,4.432 -3.567998,8 -7.999995,8 h -43.082543 c -4.432,0 -8,-3.568 -8,-8 v -21.30789 c 0,-4.432 3.568,-7.99999 8,-7.99999 z" inkscape:tile-x0="-61.580567" inkscape:tile-y0="43.393572" sodipodi:nodetypes="sssssssss" />
         <path id="path3617" style="fill:#ffffff;stroke:#000000;stroke-width:0.264583;stroke-linecap:round;stroke-linejoin:round" d="m -130.37315,129.94253 h 53.519033 c 4.431997,0 7.999995,3.56799 7.999995,7.99999 v 21.30789 c 0,4.432 -3.567998,8 -7.999995,8 h -53.519033 c -4.432,0 -8,-3.568 -8,-8 v -21.30789 c 0,-4.432 3.568,-7.99999 8,-7.99999 z" inkscape:tile-x0="-61.580567" inkscape:tile-y0="43.393572" sodipodi:nodetypes="sssssssss" />
         <path id="path3855" style="fill:#ffffff;stroke:#000000;stroke-width:0.264583;stroke-linecap:round;stroke-linejoin:round" d="m 424.78198,129.94253 h 53.51903 c 4.432,0 8,3.56799 8,7.99999 v 21.30789 c 0,4.432 -3.568,8 -8,8 h -53.51903 c -4.432,0 -8,-3.568 -8,-8 v -21.30789 c 0,-4.432 3.568,-7.99999 8,-7.99999 z" inkscape:tile-x0="-61.580567" inkscape:tile-y0="43.393572" sodipodi:nodetypes="sssssssss" />
      </g>
      <g id="g2221">
         <path id="rect950" style="fill:white;stroke:#000000;stroke-width:0.4;stroke-linecap:round;stroke-linejoin:round" d="m -53.448282,43.525864 h 21.307891 c 4.431997,0 7.999995,3.567997 7.999995,7.999994 v 21.307891 c 0,4.431997 -3.567998,7.999995 -7.999995,7.999995 h -21.307891 c -4.431997,0 -7.999995,-3.567998 -7.999995,-7.999995 V 51.525858 c 0,-4.431997 3.567998,-7.999994 7.999995,-7.999994 z" inkscape:tile-cx="-42.794336" inkscape:tile-cy="62.179803" inkscape:tile-w="37.572463" inkscape:tile-h="37.572462" inkscape:tile-x0="-61.580567" inkscape:tile-y0="43.393572" />
         <use x="0" y="0" inkscape:tiled-clone-of="#rect950" xlink:href="#rect950" transform="translate(43.208332)" id="use1835" width="100%" height="100%" />
         <use x="0" y="0" inkscape:tiled-clone-of="#rect950" xlink:href="#rect950" transform="translate(86.416665)" id="use1843" width="100%" height="100%" />
         <use x="0" y="0" inkscape:tiled-clone-of="#rect950" xlink:href="#rect950" transform="translate(129.625)" id="use1851" width="100%" height="100%" />
         <use x="0" y="0" inkscape:tiled-clone-of="#rect950" xlink:href="#rect950" transform="translate(172.83333)" id="use1859" width="100%" height="100%" />
         <use x="0" y="0" inkscape:tiled-clone-of="#rect950" xlink:href="#rect950" transform="translate(216.04166)" id="use1867" width="100%" height="100%" />
         <use x="0" y="0" inkscape:tiled-clone-of="#rect950" xlink:href="#rect950" transform="translate(259.24999)" id="use1875" width="100%" height="100%" />
         <use x="0" y="0" inkscape:tiled-clone-of="#rect950" xlink:href="#rect950" transform="translate(302.45833)" id="use1883" width="100%" height="100%" />
         <use x="0" y="0" inkscape:tiled-clone-of="#rect950" xlink:href="#rect950" transform="translate(345.66666)" id="use1891" width="100%" height="100%" />
         <use x="0" y="0" inkscape:tiled-clone-of="#rect950" xlink:href="#rect950" transform="translate(388.87499)" id="use1899" width="100%" height="100%" />
         <use x="0" y="0" inkscape:tiled-clone-of="#rect950" xlink:href="#rect950" transform="translate(432.08332)" id="use1907" width="100%" height="100%" />
         <use x="0" y="0" inkscape:tiled-clone-of="#rect950" xlink:href="#rect950" transform="translate(475.29166)" id="use1915" width="100%" height="100%" />
         <path id="use2377" style="fill:#ffffff;stroke:#000000;stroke-width:0.264583;stroke-linecap:round;stroke-linejoin:round" d="m 465.93814,43.525864 h 43.86185 c 4.432,0 7.99999,3.567997 7.99999,7.999994 v 21.307891 c 0,4.431997 -3.56799,7.999995 -7.99999,7.999995 h -43.86185 c -4.432,0 -8,-3.567998 -8,-7.999995 V 51.525858 c 0,-4.431997 3.568,-7.999994 8,-7.999994 z" inkscape:tile-x0="-61.580567" inkscape:tile-y0="43.393572" sodipodi:nodetypes="sssssssss" />
         <path id="path3237" style="fill:#ffffff;stroke:#000000;stroke-width:0.264583;stroke-linecap:round;stroke-linejoin:round" d="m -96.757947,43.525864 h 21.307891 c 4.431997,0 7.999995,3.567997 7.999995,7.999994 v 21.307891 c 0,4.431997 -3.567998,7.999995 -7.999995,7.999995 h -21.307891 c -4.431993,0 -7.999993,-3.567998 -7.999993,-7.999995 V 51.525858 c 0,-4.431997 3.568,-7.999994 7.999993,-7.999994 z" inkscape:tile-cx="-42.794336" inkscape:tile-cy="62.179803" inkscape:tile-w="37.572463" inkscape:tile-h="37.572462" inkscape:tile-x0="-61.580567" inkscape:tile-y0="43.393572" />
      </g>
      <g id="g2235" transform="translate(9.95117)">
         <use x="0" y="0" inkscape:tiled-clone-of="#rect950" xlink:href="#rect950" transform="translate(18.243405,43.208331)" id="q" width="100%" height="100%" />
         <use x="0" y="0" inkscape:tiled-clone-of="#rect950" xlink:href="#rect950" transform="translate(61.451737,43.208331)" id="w" width="100%" height="100%" />
         <use x="0" y="0" inkscape:tiled-clone-of="#rect950" xlink:href="#rect950" transform="translate(105.09444,43.208331)" id="e" width="100%" height="100%" />
         <use x="0" y="0" inkscape:tiled-clone-of="#rect950" xlink:href="#rect950" transform="translate(147.86841,43.208331)" id="r" width="100%" height="100%" />
         <use x="0" y="0" inkscape:tiled-clone-of="#rect950" xlink:href="#rect950" transform="translate(191.07674,43.208331)" id="t" width="100%" height="100%" />
         <use x="0" y="0" inkscape:tiled-clone-of="#rect950" xlink:href="#rect950" transform="translate(234.28507,43.208331)" id="y" width="100%" height="100%" />
         <use x="0" y="0" inkscape:tiled-clone-of="#rect950" xlink:href="#rect950" transform="translate(277.4934,43.208331)" id="u" width="100%" height="100%" />
         <use x="0" y="0" inkscape:tiled-clone-of="#rect950" xlink:href="#rect950" transform="translate(320.70174,43.208331)" id="i" width="100%" height="100%" />
         <use x="0" y="0" inkscape:tiled-clone-of="#rect950" xlink:href="#rect950" transform="translate(363.91007,43.208331)" id="o" width="100%" height="100%" />
         <use x="0" y="0" inkscape:tiled-clone-of="#rect950" xlink:href="#rect950" transform="translate(407.1184,43.208331)" id="p" width="100%" height="100%" />
         <use x="0" y="0" inkscape:tiled-clone-of="#rect950" xlink:href="#rect950" transform="translate(450.32673,43.208331)" id="openbracket" width="100%" height="100%" />
         <use x="0" y="0" inkscape:tiled-clone-of="#rect950" xlink:href="#rect950" transform="translate(493.53507,43.208331)" id="use1917" width="100%" height="100%" />
         <path id="use2836" style="fill:#ffffff;stroke:#000000;stroke-width:0.299959;stroke-linecap:round;stroke-linejoin:round" d="M -104.39938,86.751883 H -62.728051 C -57.026257,86.751883 -52.436004,90.316497 -52.436004,94.744291 V 116.03198 C -52.436004,120.45978 -57.026257,124.02438 -62.728051,124.02438 H -104.39938 C -110.10118,124.02438 -114.69142,120.45978 -114.69142,116.03198 V 94.744291 C -114.69142,90.316497 -110.10118,86.751883 -104.39938,86.751883 Z" inkscape:tile-x0="-61.580567" inkscape:tile-y0="43.393572" sodipodi:nodetypes="sssssssss" />
         <path id="path3155" style="fill:#ffffff;stroke:#000000;stroke-width:0.222228;stroke-linecap:round;stroke-linejoin:round" d="M 479.96015,86.713017 H 502.78488 C 505.90794,86.713017 508.42217,90.285065 508.42217,94.722094 V 116.05418 C 508.42217,120.49121 505.90794,124.06325 502.78488,124.06325 H 479.96015 C 476.83709,124.06325 474.32287,120.49121 474.32287,116.05418 V 94.722094 C 474.32287,90.285065 476.83709,86.713017 479.96015,86.713017 Z" inkscape:tile-x0="-61.580567" inkscape:tile-y0="43.393572" sodipodi:nodetypes="sssssssss" />
      </g>
      <g id="normalLetterGroup">
         <path d="M -13.733937,102.56811 -14.526308,103.51207 -16.193733,102.19604 Q -17.316834,102.87817 -18.729322,102.87817 -20.858389,102.87817 -22.215756,101.44501 -23.573122,100.00496 -23.573122,97.655411 -23.573122,95.298968 -22.215756,93.865809 -20.858389,92.432651 -18.729322,92.432651 -16.607144,92.432651 -15.256668,93.865809 -13.906192,95.298968 -13.906192,97.655411 -13.906192,99.942953 -15.215327,101.41056 Z M -16.221294,100.61819 Q -15.291119,99.515761 -15.291119,97.655411 -15.291119,95.726159 -16.255745,94.65129 -17.220371,93.576421 -18.715541,93.576421 -20.238272,93.576421 -21.216679,94.65129 -22.188195,95.726159 -22.188195,97.655411 -22.188195,99.577773 -21.216679,100.65953 -20.245163,101.7344 -18.743102,101.7344 -17.943841,101.7344 -17.220371,101.39678 L -18.226338,100.60441 -17.433967,99.660455 Z" style="font-size:14.1111px;line-height:1.25;font-family:'Microsoft Sans Serif';-inkscape-font-specification:'Microsoft Sans Serif';stroke-width:0.264583" id="path118145" />
         <path d="M 32.041975,92.604905 29.24456,102.70592 H 27.962985 L 25.53764,93.927821 23.105405,102.70592 H 21.82383 L 19.033305,92.604905 H 20.438903 L 22.457727,100.83179 24.731488,92.604905 H 26.336902 L 28.610663,100.83179 30.629487,92.604905 Z" style="font-size:14.1111px;line-height:1.25;font-family:'Microsoft Sans Serif';-inkscape-font-specification:'Microsoft Sans Serif';stroke-width:0.264583" id="path118148" />
         <path d="M 70.617641,102.70592 H 63.086668 V 92.604905 H 70.383375 V 93.803798 H 64.423364 V 96.890601 H 69.997524 V 98.089493 H 64.423364 V 101.50703 H 70.617641 Z" style="font-size:14.1111px;line-height:1.25;font-family:'Microsoft Sans Serif';-inkscape-font-specification:'Microsoft Sans Serif';stroke-width:0.264583" id="path118151" />
         <path d="M 114.6021,102.70592 H 113.15516 L 112.20432,100.01185 Q 111.94938,99.295275 111.35683,98.840523 110.76427,98.385771 109.99257,98.385771 H 107.51899 V 102.70592 H 106.1823 V 92.604905 H 110.65403 Q 111.82536,92.604905 112.5695,92.832281 113.31364,93.059657 113.78217,93.790017 114.2507,94.520377 114.2507,95.436772 114.2507,96.48408 113.64437,97.186879 113.03803,97.889678 111.98383,98.103273 V 98.130833 Q 113.03803,98.468452 113.58925,99.956732 Z M 107.51899,97.186879 H 110.50244 Q 111.74957,97.186879 112.30767,96.794138 112.87267,96.401397 112.87267,95.436772 112.87267,93.714225 110.70915,93.714225 H 107.51899 Z" style="font-size:14.1111px;line-height:1.25;font-family:'Microsoft Sans Serif';-inkscape-font-specification:'Microsoft Sans Serif';stroke-width:0.264583" id="path118154" />
         <path d="M 156.45751,93.803798 H 153.11577 V 102.70592 H 151.77218 V 93.803798 H 148.458 V 92.604905 H 156.45751 Z" style="font-size:14.1111px;line-height:1.25;font-family:'Microsoft Sans Serif';-inkscape-font-specification:'Microsoft Sans Serif';stroke-width:0.264583" id="path118157" />
         <path d="M 200.58667,92.604905 196.61792,98.427112 V 102.70592 H 195.28123 V 98.427112 L 191.31248,92.604905 H 192.93856 L 195.95647,97.255781 198.96059,92.604905 Z" style="font-size:14.1111px;line-height:1.25;font-family:'Microsoft Sans Serif';-inkscape-font-specification:'Microsoft Sans Serif';stroke-width:0.264583" id="path118160" />
         <path d="M 239.43105,102.87817 Q 237.67405,102.87817 236.799,102.19604 235.93084,101.51392 235.69657,100.59063 235.4692,99.667345 235.4692,98.447783 V 92.604905 H 236.80589 V 98.427112 Q 236.80589,100.41838 237.47424,101.04538 238.14259,101.67239 239.43105,101.67239 240.71952,101.67239 241.38786,101.04538 242.05621,100.41838 242.05621,98.427112 V 92.604905 H 243.3998 V 98.447783 Q 243.3998,100.28057 242.95883,101.14874 242.52475,102.0169 241.6428,102.45098 240.76086,102.87817 239.43105,102.87817 Z" style="font-size:14.1111px;line-height:1.25;font-family:'Microsoft Sans Serif';-inkscape-font-specification:'Microsoft Sans Serif';stroke-width:0.264583" id="path118163" />
         <path d="M 280.07377,102.70592 H 278.73019 V 92.604905 H 280.07377 Z" style="font-size:14.1111px;line-height:1.25;font-family:'Microsoft Sans Serif';-inkscape-font-specification:'Microsoft Sans Serif';stroke-width:0.264583" id="path118166" />
         <path d="M 326.03573,92.432651 Q 328.15791,92.432651 329.50839,93.865809 330.85886,95.298968 330.85886,97.655411 330.85886,100.01185 329.50839,101.44501 328.15791,102.87817 326.03573,102.87817 323.90666,102.87817 322.5493,101.44501 321.19193,100.00496 321.19193,97.655411 321.19193,95.298968 322.5493,93.865809 323.90666,92.432651 326.03573,92.432651 Z M 326.02193,101.7344 Q 327.53777,101.7344 328.5024,100.65953 329.47391,99.584663 329.47391,97.655411 329.47391,95.726159 328.50929,94.65129 327.54466,93.576421 326.04949,93.576421 324.52676,93.576421 323.54836,94.65129 322.57684,95.726159 322.57684,97.655411 322.57684,99.577773 323.54836,100.65953 324.51987,101.7344 326.02193,101.7344 Z" style="font-size:14.1111px;line-height:1.25;font-family:'Microsoft Sans Serif';-inkscape-font-specification:'Microsoft Sans Serif';stroke-width:0.264583" id="path118169" />
         <path d="M 364.75608,92.604905 H 368.52501 Q 369.76524,92.604905 370.59895,92.839172 371.43956,93.066548 371.92876,93.838248 372.41796,94.603059 372.41796,95.553905 372.41796,97.083526 371.44645,97.875897 370.47493,98.668269 368.63525,98.668269 H 366.09277 V 102.70592 H 364.75608 Z M 366.09277,97.469376 H 368.64903 Q 369.9375,97.469376 370.48182,96.987063 371.03303,96.50475 371.03303,95.595246 371.03303,94.988909 370.72987,94.520377 370.4267,94.051844 369.95817,93.927821 369.49652,93.803798 368.62147,93.803798 H 366.09277 Z" style="font-size:14.1111px;line-height:1.25;font-family:'Microsoft Sans Serif';-inkscape-font-specification:'Microsoft Sans Serif';stroke-width:0.264583" id="path118172" />
         <g aria-label="[" id="use13517" style="font-size:14.1111px;line-height:1.25;stroke-width:0.264583" transform="translate(21.718339)">
            <path d="M 388.70342,105.51711 H 385.96112 V 92.604905 H 388.70342 V 93.631543 H 387.26337 V 104.48359 H 388.70342 Z" style="font-family:'Microsoft Sans Serif';-inkscape-font-specification:'Microsoft Sans Serif'" id="path118175" />
         </g>
         <path d="m -15.75155,140.48919 -1.777668,-4.68532 -1.694986,4.68532 z m 3.073023,4.13412 h -1.508951 l -1.171332,-3.07303 h -4.230574 l -1.11621,3.07303 h -1.412488 l 3.879175,-10.10102 h 1.440048 z" style="font-size:14.1111px;line-height:1.25;stroke-width:0.264583;font-family:'Microsoft Sans Serif';-inkscape-font-specification:'Microsoft Sans Serif'" id="path118551" />
         <path d="m 25.931592,144.79556 q -2.135957,0 -3.197046,-0.95773 -1.054198,-0.95774 -1.10932,-2.4598 h 1.288465 q 0.103353,1.12999 0.937065,1.67431 0.840603,0.53744 2.025715,0.53744 1.1231,0 1.805228,-0.46164 0.689019,-0.46165 0.689019,-1.25402 0,-0.83371 -0.709689,-1.21267 -0.709689,-0.37896 -2.446016,-0.74414 -1.729437,-0.37207 -2.487357,-1.02664 -0.75103,-0.65457 -0.75103,-1.74322 0,-1.22645 0.978406,-2.01193 0.985297,-0.78548 2.61138,-0.78548 1.708766,0 2.756075,0.79237 1.047308,0.79237 1.10932,2.23931 h -1.302245 q -0.199816,-1.83279 -2.508028,-1.83279 -1.11621,0 -1.729437,0.4203 -0.613226,0.4203 -0.613226,1.11621 0,0.6339 0.489203,0.95085 0.496093,0.31695 1.83968,0.61323 1.350476,0.29627 2.142847,0.58566 0.792372,0.28939 1.357367,0.90262 0.564995,0.60633 0.564995,1.63297 0,1.30224 -1.040418,2.16352 -1.033528,0.86127 -2.700953,0.86127 z" style="font-size:14.1111px;line-height:1.25;stroke-width:0.264583;font-family:'Microsoft Sans Serif';-inkscape-font-specification:'Microsoft Sans Serif'" id="path118554" />
         <path d="m 65.216943,134.52229 h 3.203936 q 5.146969,0 5.146969,4.99539 0,5.10563 -5.146969,5.10563 h -3.203936 z m 1.336696,8.90212 h 1.839679 q 2.197969,0 2.997231,-1.01974 0.799262,-1.02664 0.799262,-2.88699 0,-1.81212 -0.799262,-2.80431 -0.792371,-0.99218 -2.997231,-0.99218 h -1.839679 z" style="font-size:14.1111px;line-height:1.25;stroke-width:0.264583;font-family:'Microsoft Sans Serif';-inkscape-font-specification:'Microsoft Sans Serif'" id="path118557" />
         <path d="m 115.12697,135.72119 h -5.4777 v 3.12814 h 4.74734 v 1.19889 h -4.74734 v 4.57509 h -1.33669 v -10.10102 h 6.81439 z" style="font-size:14.1111px;line-height:1.25;stroke-width:0.264583;font-family:'Microsoft Sans Serif';-inkscape-font-specification:'Microsoft Sans Serif'" id="path118560" />
         <path d="m 155.82481,144.79556 q -2.1773,0 -3.53466,-1.42627 -1.35048,-1.42627 -1.35048,-3.79649 0,-2.37711 1.3367,-3.79649 1.33669,-1.42627 3.5071,-1.42627 1.8259,0 3.03168,0.88194 1.21268,0.87506 1.35737,2.34956 h -1.38493 q -0.0827,-0.97841 -0.88194,-1.52962 -0.79926,-0.55811 -2.1084,-0.55811 -1.56407,0 -2.52181,1.06798 -0.95084,1.06798 -0.95084,3.01101 0,1.93614 0.96462,3.01101 0.96463,1.06798 2.52181,1.06798 2.18419,0 3.24528,-1.44005 v -1.53651 h -2.6665 v -1.20578 h 3.96185 v 5.15386 h -0.94395 l -0.3514,-1.06109 q -1.02664,1.23334 -3.2315,1.23334 z" style="font-size:14.1111px;line-height:1.25;stroke-width:0.264583;font-family:'Microsoft Sans Serif';-inkscape-font-specification:'Microsoft Sans Serif'" id="path118563" />
         <path d="m 202.43445,144.62331 h -1.34359 v -4.75423 h -5.25032 v 4.75423 h -1.33669 v -10.10102 h 1.33669 v 4.1479 h 5.25032 v -4.1479 h 1.34359 z" style="font-size:14.1111px;line-height:1.25;stroke-width:0.264583;font-family:'Microsoft Sans Serif';-inkscape-font-specification:'Microsoft Sans Serif'" id="path118566" />
         <path d="m 242.39504,141.39181 q 0,1.85346 -0.71658,2.63205 -0.71658,0.7717 -2.11528,0.7717 -1.25402,0 -1.98438,-0.76481 -0.73036,-0.76481 -0.73036,-2.01882 v -0.26872 h 1.34359 q 0,1.84657 1.37115,1.84657 0.72347,0 1.10932,-0.40652 0.38585,-0.40652 0.38585,-1.72255 v -6.93842 h 1.33669 z" style="font-size:14.1111px;line-height:1.25;stroke-width:0.264583;font-family:'Microsoft Sans Serif';-inkscape-font-specification:'Microsoft Sans Serif'" id="path118569" />
         <path d="m 288.94956,144.62331 h -1.76389 l -3.5829,-5.03673 -1.57096,1.53651 v 3.50022 h -1.3367 v -10.10102 h 1.3367 v 5.00917 l 4.92648,-5.00917 h 1.80523 l -4.23057,4.1479 z" style="font-size:14.1111px;line-height:1.25;stroke-width:0.264583;font-family:'Microsoft Sans Serif';-inkscape-font-specification:'Microsoft Sans Serif'" id="path118572" />
         <path d="m 330.04016,144.62331 h -6.2494 v -10.10102 h 1.33669 v 8.90212 h 4.91271 z" style="font-size:14.1111px;line-height:1.25;stroke-width:0.264583;font-family:'Microsoft Sans Serif';-inkscape-font-specification:'Microsoft Sans Serif'" id="path118575" />
         <path d="m 368.42288,144.62331 q 0,0.90261 -0.35829,1.44694 -0.35829,0.54432 -1.0542,0.54432 v -0.66146 q 0.69591,0 0.69591,-1.3298 h -0.69591 v -1.41249 h 1.41249 z m 0,-5.898 h -1.41249 v -1.41249 h 1.41249 z" style="font-size:14.1111px;line-height:1.25;stroke-width:0.264583;font-family:'Microsoft Sans Serif';-inkscape-font-specification:'Microsoft Sans Serif'" id="path118578" />
         <path d="m 7.8349716,187.90874 h -7.98572513 v -1.25402 l 6.27695913,-7.6481 H 0.42802206 v -1.19889 H 7.662717 v 1.25401 l -6.2769591,7.6481 h 6.4492137 z" style="font-size:14.1111px;line-height:1.25;stroke-width:0.264583;font-family:'Microsoft Sans Serif';-inkscape-font-specification:'Microsoft Sans Serif'" id="path118932" />
         <path d="m 52.033033,187.90874 h -1.639864 l -2.990341,-4.27881 -3.004121,4.27881 h -1.639864 l 3.879175,-5.31923 -3.493324,-4.78178 h 1.632974 l 2.61138,3.73448 2.625161,-3.73448 h 1.632974 l -3.507105,4.78178 z" style="font-size:14.1111px;line-height:1.25;stroke-width:0.264583;font-family:'Microsoft Sans Serif';-inkscape-font-specification:'Microsoft Sans Serif'" id="path118935" />
         <path d="m 91.146133,188.08099 q -2.142848,0 -3.424423,-1.4056 -1.274684,-1.41248 -1.274684,-3.81716 0,-2.40467 1.274684,-3.81027 1.281575,-1.41249 3.424423,-1.41249 1.646754,0 2.804305,0.88883 1.157551,0.88884 1.302245,2.34267 h -1.378037 q -0.08268,-0.95774 -0.833712,-1.52273 -0.74414,-0.565 -1.881021,-0.565 -1.536511,0 -2.432235,1.06109 -0.895725,1.0542 -0.895725,3.0179 0,1.95681 0.888834,3.0179 0.888834,1.06109 2.411565,1.06109 1.185112,0 1.915472,-0.57877 0.73036,-0.57878 0.826822,-1.65365 h 1.378037 q -0.144694,1.6123 -1.267794,2.49425 -1.1231,0.88194 -2.838756,0.88194 z" style="font-size:14.1111px;line-height:1.25;stroke-width:0.264583;font-family:'Microsoft Sans Serif';-inkscape-font-specification:'Microsoft Sans Serif'" id="path118938" />
         <path d="m 138.19673,177.80773 -3.92741,10.10101 h -1.37804 l -3.9274,-10.10101 h 1.42627 l 3.19015,8.66096 3.19016,-8.66096 z" style="font-size:14.1111px;line-height:1.25;stroke-width:0.264583;font-family:'Microsoft Sans Serif';-inkscape-font-specification:'Microsoft Sans Serif'" id="path118941" />
         <path d="m 180.65846,184.97352 q 0,1.41938 -0.96463,2.1773 -0.96463,0.75792 -2.80431,0.75792 h -3.78271 v -10.10101 h 3.59668 q 1.6123,0 2.53559,0.68901 0.92328,0.68902 0.92328,1.88791 0,1.46072 -1.45383,2.16352 0.97841,0.24805 1.46072,0.9164 0.48921,0.66146 0.48921,1.50895 z m -6.21495,-2.93522 h 2.2462 q 1.10932,0 1.63297,-0.3514 0.52366,-0.35829 0.52366,-1.18511 0,-0.74414 -0.50988,-1.11621 -0.50987,-0.37896 -1.77077,-0.37896 h -2.12218 z m 0,4.67154 h 2.43223 q 2.39779,0 2.39779,-1.73632 0,-0.90262 -0.55811,-1.31603 -0.55121,-0.4203 -2.01193,-0.4203 h -2.25998 z" style="font-size:14.1111px;line-height:1.25;stroke-width:0.264583;font-family:'Microsoft Sans Serif';-inkscape-font-specification:'Microsoft Sans Serif'" id="path118944" />
         <path d="m 224.13306,187.90874 h -1.37115 l -5.29166,-7.97195 v 7.97195 h -1.2678 v -10.10101 h 1.36426 l 5.29166,7.97194 v -7.97194 h 1.27469 z" style="font-size:14.1111px;line-height:1.25;stroke-width:0.264583;font-family:'Microsoft Sans Serif';-inkscape-font-specification:'Microsoft Sans Serif'" id="path118947" />
         <path d="m 268.79276,187.90874 h -1.2678 v -8.59206 l -2.88009,8.59206 h -1.1989 l -2.88009,-8.59206 v 8.59206 h -1.2678 v -10.10101 h 2.00505 l 2.7354,8.4198 2.74918,-8.4198 h 2.00505 z" style="font-size:14.1111px;line-height:1.25;stroke-width:0.264583;font-family:'Microsoft Sans Serif';-inkscape-font-specification:'Microsoft Sans Serif'" id="path118950" />
         <path d="m 303.93023,187.90874 q 0,0.90261 -0.35828,1.44694 -0.35829,0.54432 -1.0542,0.54432 v -0.66146 q 0.69591,0 0.69591,-1.3298 h -0.69591 v -1.41249 h 1.41248 z" style="font-size:14.1111px;line-height:1.25;stroke-width:0.264583;font-family:'Microsoft Sans Serif';-inkscape-font-specification:'Microsoft Sans Serif'" id="path118953" />
         <path d="m 347.02588,187.90874 h -1.41249 v -1.41249 h 1.41249 z" style="font-size:14.1111px;line-height:1.25;stroke-width:0.264583;font-family:'Microsoft Sans Serif';-inkscape-font-specification:'Microsoft Sans Serif'" id="path118956" />
      </g>
      <path id="rect950-3" style="fill:#ffffff;stroke:#000000;stroke-width:0.264583;stroke-linecap:round;stroke-linejoin:round" d="m -98.497044,216.61812 h 31.136489 c 4.431997,0 7.999995,3.568 7.999995,8 v 21.30789 c 0,4.432 -3.567998,7.99999 -7.999995,7.99999 h -31.136489 c -4.431996,0 -7.999996,-3.56799 -7.999996,-7.99999 v -21.30789 c 0,-4.432 3.568,-8 7.999996,-8 z" inkscape:tile-cx="-42.794336" inkscape:tile-cy="62.179803" inkscape:tile-w="37.572463" inkscape:tile-h="37.572462" inkscape:tile-x0="-61.580567" inkscape:tile-y0="43.393572" sodipodi:nodetypes="sssssssss" />
      <path id="path70232" style="fill:#ffffff;stroke:#000000;stroke-width:0.264583;stroke-linecap:round;stroke-linejoin:round" d="m -45.668328,216.61812 h 31.136489 c 4.431997,0 7.9999954,3.568 7.9999954,8 v 21.30789 c 0,4.432 -3.5679984,7.99999 -7.9999954,7.99999 h -31.136489 c -4.431996,0 -7.999996,-3.56799 -7.999996,-7.99999 v -21.30789 c 0,-4.432 3.568,-8 7.999996,-8 z" inkscape:tile-cx="-42.794336" inkscape:tile-cy="62.179803" inkscape:tile-w="37.572463" inkscape:tile-h="37.572462" inkscape:tile-x0="-61.580567" inkscape:tile-y0="43.393572" sodipodi:nodetypes="sssssssss" />
      <path id="path70234" style="fill:#ffffff;stroke:#000000;stroke-width:0.264583;stroke-linecap:round;stroke-linejoin:round" d="M 6.546101,216.61812 H 37.68259 c 4.431997,0 7.999995,3.568 7.999995,8 v 21.30789 c 0,4.432 -3.567998,7.99999 -7.999995,7.99999 H 6.546101 c -4.431996,0 -7.999996,-3.56799 -7.999996,-7.99999 v -21.30789 c 0,-4.432 3.568,-8 7.999996,-8 z" inkscape:tile-cx="-42.794336" inkscape:tile-cy="62.179803" inkscape:tile-w="37.572463" inkscape:tile-h="37.572462" inkscape:tile-x0="-61.580567" inkscape:tile-y0="43.393572" sodipodi:nodetypes="sssssssss" />
      <path id="path70236" style="fill:#ffffff;stroke:#000000;stroke-width:0.264583;stroke-linecap:round;stroke-linejoin:round" d="M 59.067674,216.61812 H 349.43345 c 4.43199,0 7.99999,3.568 7.99999,8 v 21.30789 c 0,4.432 -3.568,7.99999 -7.99999,7.99999 H 59.067674 c -4.431996,0 -7.999996,-3.56799 -7.999996,-7.99999 v -21.30789 c 0,-4.432 3.568,-8 7.999996,-8 z" inkscape:tile-cx="-42.794336" inkscape:tile-cy="62.179803" inkscape:tile-w="37.572463" inkscape:tile-h="37.572462" inkscape:tile-x0="-61.580567" inkscape:tile-y0="43.393572" sodipodi:nodetypes="sssssssss" />
      <path id="path70337" style="fill:#ffffff;stroke:#000000;stroke-width:0.264583;stroke-linecap:round;stroke-linejoin:round" d="m 480.16169,216.61812 h 31.13648 c 4.432,0 8,3.568 8,8 v 21.30789 c 0,4.432 -3.568,7.99999 -8,7.99999 h -31.13648 c -4.432,0 -8,-3.56799 -8,-7.99999 v -21.30789 c 0,-4.432 3.568,-8 8,-8 z" inkscape:tile-cx="-42.794336" inkscape:tile-cy="62.179803" inkscape:tile-w="37.572463" inkscape:tile-h="37.572462" inkscape:tile-x0="-61.580567" inkscape:tile-y0="43.393572" sodipodi:nodetypes="sssssssss" />
      <path id="path70339" style="fill:#ffffff;stroke:#000000;stroke-width:0.264583;stroke-linecap:round;stroke-linejoin:round" d="m 427.02583,216.61812 h 31.13649 c 4.43199,0 7.99999,3.568 7.99999,8 v 21.30789 c 0,4.432 -3.568,7.99999 -7.99999,7.99999 h -31.13649 c -4.432,0 -8,-3.56799 -8,-7.99999 v -21.30789 c 0,-4.432 3.568,-8 8,-8 z" inkscape:tile-cx="-42.794336" inkscape:tile-cy="62.179803" inkscape:tile-w="37.572463" inkscape:tile-h="37.572462" inkscape:tile-x0="-61.580567" inkscape:tile-y0="43.393572" sodipodi:nodetypes="sssssssss" />
      <path id="path70341" style="fill:#ffffff;stroke:#000000;stroke-width:0.264583;stroke-linecap:round;stroke-linejoin:round" d="m 373.58282,216.61812 h 31.13649 c 4.432,0 8,3.568 8,8 v 21.30789 c 0,4.432 -3.568,7.99999 -8,7.99999 h -31.13649 c -4.43199,0 -7.99999,-3.56799 -7.99999,-7.99999 v -21.30789 c 0,-4.432 3.568,-8 7.99999,-8 z" inkscape:tile-cx="-42.794336" inkscape:tile-cy="62.179803" inkscape:tile-w="37.572463" inkscape:tile-h="37.572462" inkscape:tile-x0="-61.580567" inkscape:tile-y0="43.393572" sodipodi:nodetypes="sssssssss" />
      <text xml:space="preserve" style="font-size:10.5833px;line-height:1.25;font-family:sans-serif;letter-spacing:0px;word-spacing:0px;stroke-width:0.264583" x="133.14113" y="114.62973" id="text106734">
         <tspan sodipodi:role="line" id="tspan106732" style="stroke-width:0.264583" />
      </text>
      <g id="mirrorLetterGroup">
         <path d="M 381.93562,154.6178 380.15795,149.93248 378.46296,154.6178 Z M 385.00864,158.75192 H 383.49969 L 382.32836,155.67889 H 378.09778 L 376.98157,158.75192 H 375.56909 L 379.44826,148.6509 H 380.88831 Z" style="font-size:14.1111px;line-height:1.25;font-family:'Microsoft Sans Serif';-inkscape-font-specification:'Microsoft Sans Serif';stroke-width:0.264583" id="path744" />
         <path d="M 337.52396,158.92417 Q 335.388,158.92417 334.32691,157.96644 333.27272,157.0087 333.21759,155.50664 H 334.50606 Q 334.60941,156.63663 335.44312,157.18095 336.28373,157.71839 337.46884,157.71839 338.59194,157.71839 339.27407,157.25675 339.96309,156.7951 339.96309,156.00273 339.96309,155.16902 339.2534,154.79006 338.54371,154.4111 336.80738,154.04592 335.07794,153.67385 334.32002,153.01928 333.56899,152.36471 333.56899,151.27606 333.56899,150.04961 334.5474,149.26413 335.5327,148.47865 337.15878,148.47865 338.86755,148.47865 339.91486,149.27102 340.96216,150.06339 341.02418,151.51033 H 339.72193 Q 339.52211,149.67754 337.2139,149.67754 336.09769,149.67754 335.48447,150.09784 334.87124,150.51814 334.87124,151.21405 334.87124,151.84795 335.36044,152.1649 335.85654,152.48185 337.20012,152.77813 338.5506,153.0744 339.34297,153.36379 340.13534,153.65318 340.70034,154.26641 341.26533,154.87274 341.26533,155.89938 341.26533,157.20162 340.22491,158.0629 339.19139,158.92417 337.52396,158.92417 Z" style="font-size:14.1111px;line-height:1.25;font-family:'Microsoft Sans Serif';-inkscape-font-specification:'Microsoft Sans Serif';stroke-width:0.264583" id="path746" />
         <path d="M 289.32271,148.6509 H 292.52665 Q 297.67361,148.6509 297.67361,153.64629 297.67361,158.75192 292.52665,158.75192 H 289.32271 Z M 290.65941,157.55302 H 292.49908 Q 294.69705,157.55302 295.49632,156.53328 296.29558,155.50664 296.29558,153.64629 296.29558,151.83417 295.49632,150.84198 294.70394,149.8498 292.49908,149.8498 H 290.65941 Z" style="font-size:14.1111px;line-height:1.25;font-family:'Microsoft Sans Serif';-inkscape-font-specification:'Microsoft Sans Serif';stroke-width:0.264583" id="path748" />
         <path d="M 254.57798,149.8498 H 249.10028 V 152.97794 H 253.84762 V 154.17683 H 249.10028 V 158.75192 H 247.76359 V 148.6509 H 254.57798 Z" style="font-size:14.1111px;line-height:1.25;font-family:'Microsoft Sans Serif';-inkscape-font-specification:'Microsoft Sans Serif';stroke-width:0.264583" id="path750" />
         <path d="M 207.42404,158.92417 Q 205.24674,158.92417 203.88938,157.4979 202.5389,156.07163 202.5389,153.70141 202.5389,151.3243 203.8756,149.90492 205.21229,148.47865 207.3827,148.47865 209.2086,148.47865 210.41438,149.36059 211.62706,150.23565 211.77175,151.71015 H 210.38682 Q 210.30412,150.73174 209.50488,150.18053 208.70562,149.62242 207.39648,149.62242 205.83241,149.62242 204.87467,150.6904 203.92383,151.75838 203.92383,153.70141 203.92383,155.63755 204.88845,156.71242 205.85308,157.7804 207.41026,157.7804 209.59445,157.7804 210.65554,156.34035 V 154.80384 H 207.98904 V 153.59806 H 211.95089 V 158.75192 H 211.00694 L 210.65554,157.69083 Q 209.6289,158.92417 207.42404,158.92417 Z" style="font-size:14.1111px;line-height:1.25;font-family:'Microsoft Sans Serif';-inkscape-font-specification:'Microsoft Sans Serif';stroke-width:0.264583" id="path752" />
         <path d="M 168.38671,158.75192 H 167.04312 V 153.99769 H 161.7928 V 158.75192 H 160.45611 V 148.6509 H 161.7928 V 152.7988 H 167.04312 V 148.6509 H 168.38671 Z" style="font-size:14.1111px;line-height:1.25;font-family:'Microsoft Sans Serif';-inkscape-font-specification:'Microsoft Sans Serif';stroke-width:0.264583" id="path754" />
         <path d="M 126.04212,155.52042 Q 126.04212,157.37388 125.32554,158.15247 124.60896,158.92417 123.21026,158.92417 121.95624,158.92417 121.22588,158.15936 120.49552,157.39455 120.49552,156.14054 V 155.87182 H 121.83911 Q 121.83911,157.71839 123.21026,157.71839 123.93373,157.71839 124.31958,157.31187 124.70543,156.90535 124.70543,155.58932 V 148.6509 H 126.04212 Z" style="font-size:14.1111px;line-height:1.25;font-family:'Microsoft Sans Serif';-inkscape-font-specification:'Microsoft Sans Serif';stroke-width:0.264583" id="path756" />
         <path d="M 82.195448,158.75192 H 80.431558 L 76.848658,153.71519 75.277698,155.2517 V 158.75192 H 73.940998 V 148.6509 H 75.277698 V 153.66007 L 80.204178,148.6509 H 82.009408 L 77.778838,152.7988 Z" style="font-size:14.1111px;line-height:1.25;font-family:'Microsoft Sans Serif';-inkscape-font-specification:'Microsoft Sans Serif';stroke-width:0.264583" id="path758" />
         <path d="M 39.099798,158.75192 H 32.850398 V 148.6509 H 34.187088 V 157.55302 H 39.099798 Z" style="font-size:14.1111px;line-height:1.25;font-family:'Microsoft Sans Serif';-inkscape-font-specification:'Microsoft Sans Serif';stroke-width:0.264583" id="path760" />
         <path d="M -4.1198321,158.75192 Q -4.1198321,159.65453 -4.4781221,160.19886 -4.8364121,160.74318 -5.5323221,160.74318 V 160.08172 Q -4.8364121,160.08172 -4.8364121,158.75192 H -5.5323221 V 157.33943 H -4.1198321 Z M -4.1198321,152.85392 H -5.5323221 V 151.44143 H -4.1198321 Z" style="font-size:14.1111px;line-height:1.25;font-family:'Microsoft Sans Serif';-inkscape-font-specification:'Microsoft Sans Serif';stroke-width:0.264583" id="path762" />
         <path d="M 429.11497,117.92967 428.32164,118.87478 426.65217,117.55715 Q 425.5277,118.24011 424.11349,118.24011 421.98184,118.24011 420.62281,116.8052 419.26379,115.3634 419.26379,113.01098 419.26379,110.65167 420.62281,109.21676 421.98184,107.78185 424.11349,107.78185 426.23826,107.78185 427.59039,109.21676 428.9425,110.65167 428.9425,113.01098 428.9425,115.30132 427.63178,116.77071 Z M 426.62458,115.97737 Q 427.55589,114.8736 427.55589,113.01098 427.55589,111.07938 426.59009,110.0032 425.62429,108.92702 424.1273,108.92702 422.60271,108.92702 421.62311,110.0032 420.65041,111.07938 420.65041,113.01098 420.65041,114.9357 421.62311,116.01876 422.5958,117.09494 424.0997,117.09494 424.89994,117.09494 425.62429,116.75691 L 424.6171,115.96358 425.41043,115.01848 Z" style="font-size:14.1111px;line-height:1.25;font-family:'Microsoft Sans Serif';-inkscape-font-specification:'Microsoft Sans Serif';stroke-width:0.264906" id="path868" />
         <path d="M 386.45659,107.95432 383.65577,118.06765 H 382.37263 L 379.94433,109.27885 377.50913,118.06765 H 376.22599 L 373.43206,107.95432 H 374.83938 L 376.86066,116.19123 379.13719,107.95432 H 380.74457 L 383.0211,116.19123 385.04238,107.95432 Z" style="font-size:14.1111px;line-height:1.25;font-family:'Microsoft Sans Serif';-inkscape-font-specification:'Microsoft Sans Serif';stroke-width:0.264906" id="path870" />
         <path d="M 342.34952,118.06765 H 334.80936 V 107.95432 H 342.11496 V 109.15467 H 336.14769 V 112.24524 H 341.72864 V 113.4456 H 336.14769 V 116.8673 H 342.34952 Z" style="font-size:14.1111px;line-height:1.25;font-family:'Microsoft Sans Serif';-inkscape-font-specification:'Microsoft Sans Serif';stroke-width:0.264906" id="path872" />
         <path d="M 299.20134,118.06765 H 297.75264 L 296.80064,115.37029 Q 296.54539,114.65285 295.95211,114.19755 295.35883,113.74223 294.58619,113.74223 H 292.1096 V 118.06765 H 290.77127 V 107.95432 H 295.24845 Q 296.42122,107.95432 297.16627,108.18197 297.91131,108.40963 298.38041,109.14088 298.84952,109.87213 298.84952,110.78964 298.84952,111.83822 298.24245,112.54188 297.63537,113.24554 296.57988,113.4594 V 113.48699 Q 297.63537,113.82501 298.18725,115.31511 Z M 292.1096,112.54188 H 295.09668 Q 296.34533,112.54188 296.90412,112.14866 297.46979,111.75544 297.46979,110.78964 297.46979,109.065 295.30365,109.065 H 292.1096 Z" style="font-size:14.1111px;line-height:1.25;font-family:'Microsoft Sans Serif';-inkscape-font-specification:'Microsoft Sans Serif';stroke-width:0.264906" id="path874" />
         <path d="M 256.8741,109.15467 H 253.52828 V 118.06765 H 252.18305 V 109.15467 H 248.86483 V 107.95432 H 256.8741 Z" style="font-size:14.1111px;line-height:1.25;font-family:'Microsoft Sans Serif';-inkscape-font-specification:'Microsoft Sans Serif';stroke-width:0.264906" id="path876" />
         <path d="M 213.96736,107.95432 209.99378,113.78362 V 118.06765 H 208.65546 V 113.78362 L 204.68187,107.95432 H 206.30993 L 209.33152,112.61086 212.3393,107.95432 Z" style="font-size:14.1111px;line-height:1.25;font-family:'Microsoft Sans Serif';-inkscape-font-specification:'Microsoft Sans Serif';stroke-width:0.264906" id="path878" />
         <path d="M 165.78322,118.24011 Q 164.02407,118.24011 163.14796,117.55715 162.27874,116.8742 162.04418,115.94978 161.81654,115.02537 161.81654,113.80433 V 107.95432 H 163.15486 V 113.78362 Q 163.15486,115.77732 163.82402,116.40508 164.49318,117.03286 165.78322,117.03286 167.07326,117.03286 167.74241,116.40508 168.41158,115.77732 168.41158,113.78362 V 107.95432 H 169.75681 V 113.80433 Q 169.75681,115.63934 169.3153,116.50857 168.88069,117.37779 167.99766,117.8124 167.11465,118.24011 165.78322,118.24011 Z" style="font-size:14.1111px;line-height:1.25;font-family:'Microsoft Sans Serif';-inkscape-font-specification:'Microsoft Sans Serif';stroke-width:0.264906" id="path880" />
         <path d="M 126.44307,118.06765 H 125.09785 V 107.95432 H 126.44307 Z" style="font-size:14.1111px;line-height:1.25;font-family:'Microsoft Sans Serif';-inkscape-font-specification:'Microsoft Sans Serif';stroke-width:0.264906" id="path882" />
         <path d="M 80.838005,107.78185 Q 82.962773,107.78185 84.314892,109.21676 85.667012,110.65167 85.667012,113.01098 85.667012,115.37029 84.314892,116.8052 82.962773,118.24011 80.838005,118.24011 78.706339,118.24011 77.347324,116.8052 75.988299,115.3634 75.988299,113.01098 75.988299,110.65167 77.347324,109.21676 78.706339,107.78185 80.838005,107.78185 Z M 80.824188,117.09494 Q 82.341877,117.09494 83.307685,116.01876 84.280372,114.94259 84.280372,113.01098 84.280372,111.07938 83.314585,110.0032 82.348775,108.92702 80.851782,108.92702 79.327195,108.92702 78.347602,110.0032 77.374898,111.07938 77.374898,113.01098 77.374898,114.9357 78.347602,116.01876 79.320297,117.09494 80.824188,117.09494 Z" style="font-size:14.1111px;line-height:1.25;font-family:'Microsoft Sans Serif';-inkscape-font-specification:'Microsoft Sans Serif';stroke-width:0.264906" id="path884" />
         <path d="M 32.641059,107.95432 H 36.414585 Q 37.656327,107.95432 38.491054,108.18887 39.332689,108.41653 39.822485,109.18917 40.312281,109.95491 40.312281,110.90692 40.312281,112.4384 39.339587,113.23174 38.366882,114.02508 36.524959,114.02508 H 33.979379 V 118.06765 H 32.641059 Z M 33.979379,112.82472 H 36.538756 Q 37.828797,112.82472 38.373781,112.34183 38.925663,111.85892 38.925663,110.94831 38.925663,110.34123 38.622133,109.87213 38.318594,109.40303 37.849492,109.27885 37.387279,109.15467 36.511162,109.15467 H 33.979379 Z" style="font-size:14.1111px;line-height:1.25;font-family:'Microsoft Sans Serif';-inkscape-font-specification:'Microsoft Sans Serif';stroke-width:0.264906" id="path886" />
         <g aria-label="[" id="g890" style="font-size:14.1111px;line-height:1.25;stroke-width:0.264583" transform="matrix(1.0012193,0,0,1.0012193,-391.8408,15.236506)">
            <path d="M 388.70342,105.51711 H 385.96112 V 92.604905 H 388.70342 V 93.631543 H 387.26337 V 104.48359 H 388.70342 Z" style="font-family:'Microsoft Sans Serif';-inkscape-font-specification:'Microsoft Sans Serif'" id="path888" />
         </g>
         <path d="M 365.4545,206.78141 H 357.46878 V 205.52739 L 363.74573,197.87929 H 358.04755 V 196.6804 H 365.28225 V 197.93441 L 359.00529,205.58251 H 365.4545 Z" style="font-size:14.1111px;line-height:1.25;font-family:'Microsoft Sans Serif';-inkscape-font-specification:'Microsoft Sans Serif';stroke-width:0.264583" id="path972" />
         <path d="M 322.5449,206.78141 H 320.90504 L 317.9147,202.5026 314.91058,206.78141 H 313.27071 L 317.14989,201.46218 313.65657,196.6804 H 315.28954 L 317.90092,200.41488 320.52608,196.6804 H 322.15905 L 318.65195,201.46218 Z" style="font-size:14.1111px;line-height:1.25;font-family:'Microsoft Sans Serif';-inkscape-font-specification:'Microsoft Sans Serif';stroke-width:0.264583" id="path974" />
         <path d="M 274.75017,206.95366 Q 272.60732,206.95366 271.32574,205.54806 270.05106,204.13558 270.05106,201.7309 270.05106,199.32623 271.32574,197.92063 272.60732,196.50814 274.75017,196.50814 276.39692,196.50814 277.55447,197.39697 278.71202,198.28581 278.85672,199.73964 H 277.47868 Q 277.396,198.7819 276.64497,198.21691 275.90083,197.65191 274.76395,197.65191 273.22743,197.65191 272.33171,198.713 271.43599,199.7672 271.43599,201.7309 271.43599,203.68771 272.32482,204.7488 273.21365,205.80989 274.73638,205.80989 275.9215,205.80989 276.65186,205.23112 277.38222,204.65234 277.47868,203.57747 H 278.85672 Q 278.71202,205.18977 277.58892,206.07172 276.46582,206.95366 274.75017,206.95366 Z" style="font-size:14.1111px;line-height:1.25;font-family:'Microsoft Sans Serif';-inkscape-font-specification:'Microsoft Sans Serif';stroke-width:0.264583" id="path976" />
         <path d="M 236.33987,196.6804 232.41246,206.78141 H 231.03442 L 227.10702,196.6804 H 228.53329 L 231.72344,205.34136 234.9136,196.6804 Z" style="font-size:14.1111px;line-height:1.25;font-family:'Microsoft Sans Serif';-inkscape-font-specification:'Microsoft Sans Serif';stroke-width:0.264583" id="path978" />
         <path d="M 192.19694,203.84619 Q 192.19694,205.26557 191.23231,206.02349 190.26768,206.78141 188.428,206.78141 H 184.64529 V 196.6804 H 188.24197 Q 189.85427,196.6804 190.77756,197.36941 191.70084,198.05843 191.70084,199.25732 191.70084,200.71804 190.24701,201.42084 191.22542,201.66889 191.70773,202.33724 192.19694,202.9987 192.19694,203.84619 Z M 185.98199,200.91097 H 188.22819 Q 189.33751,200.91097 189.86116,200.55957 190.38482,200.20128 190.38482,199.37446 190.38482,198.63032 189.87494,198.25825 189.36507,197.87929 188.10417,197.87929 H 185.98199 Z M 185.98199,205.58251 H 188.41422 Q 190.81201,205.58251 190.81201,203.84619 190.81201,202.94357 190.2539,202.53016 189.70269,202.10986 188.24197,202.10986 H 185.98199 Z" style="font-size:14.1111px;line-height:1.25;font-family:'Microsoft Sans Serif';-inkscape-font-specification:'Microsoft Sans Serif';stroke-width:0.264583" id="path980" />
         <path d="M 149.1013,206.78141 H 147.73015 L 142.43849,198.80946 V 206.78141 H 141.17069 V 196.6804 H 142.53495 L 147.82661,204.65234 V 196.6804 H 149.1013 Z" style="font-size:14.1111px;line-height:1.25;font-family:'Microsoft Sans Serif';-inkscape-font-specification:'Microsoft Sans Serif';stroke-width:0.264583" id="path982" />
         <path d="M 106.00567,206.78141 H 104.73787 V 198.18935 L 101.85778,206.78141 H 100.65888 L 97.778789,198.18935 V 206.78141 H 96.510989 V 196.6804 H 98.516039 L 101.25144,205.1002 104.00062,196.6804 H 106.00567 Z" style="font-size:14.1111px;line-height:1.25;font-family:'Microsoft Sans Serif';-inkscape-font-specification:'Microsoft Sans Serif';stroke-width:0.264583" id="path984" />
         <path d="M 62.785999,206.78141 Q 62.785999,207.68402 62.427719,208.22835 62.069429,208.77267 61.373519,208.77267 V 208.11121 Q 62.069429,208.11121 62.069429,206.78141 H 61.373519 V 205.36892 H 62.785999 Z" style="font-size:14.1111px;line-height:1.25;font-family:'Microsoft Sans Serif';-inkscape-font-specification:'Microsoft Sans Serif';stroke-width:0.264583" id="path986" />
         <path d="M 19.690359,206.78141 H 18.277869 V 205.36892 H 19.690359 Z" style="font-size:14.1111px;line-height:1.25;font-family:'Microsoft Sans Serif';-inkscape-font-specification:'Microsoft Sans Serif';stroke-width:0.264583" id="path988" />
      </g>
      <text xml:space="preserve" style="font-style:normal;font-variant:normal;font-weight:normal;font-stretch:normal;font-size:18.8326px;line-height:1.25;font-family:Arial;-inkscape-font-specification:Arial;letter-spacing:0px;word-spacing:0px;stroke-width:0.196173" x="140.92502" y="241.90208" id="text869">
         <tspan sodipodi:role="line" id="tspan867" style="font-style:normal;font-variant:normal;font-weight:normal;font-stretch:normal;font-family:Arial;-inkscape-font-specification:Arial;stroke-width:0.196173" x="140.92502" y="241.90208">-hold to switch-</tspan>
      </text>
   </g>
</svg>
